{
  "accessors": [
    {
      "name": "WeiHai_Government_High_1_0_positions",
      "componentType": 5126,
      "count": 798,
      "min": [
        -91.4541015625,
        -47.15039825439453,
        0
      ],
      "max": [
        91.4551010131836,
        47.15039825439453,
        41.77519989013672
      ],
      "type": "VEC3",
      "bufferView": 0,
      "byteOffset": 0
    },
    {
      "name": "WeiHai_Government_High_1_0_normals",
      "componentType": 5126,
      "count": 798,
      "min": [
        -1,
        -1,
        -1
      ],
      "max": [
        1,
        1,
        1
      ],
      "type": "VEC3",
      "bufferView": 1,
      "byteOffset": 0
    },
    {
      "name": "WeiHai_Government_High_1_0_texcoords",
      "componentType": 5126,
      "count": 798,
      "min": [
        0.0010000000474974513,
        0.0010000000474974513
      ],
      "max": [
        0.9876999855041504,
        0.9990000128746033
      ],
      "type": "VEC2",
      "bufferView": 2,
      "byteOffset": 0
    },
    {
      "name": "WeiHai_Government_High_1_0_indices",
      "componentType": 5123,
      "count": 1590,
      "min": [
        0
      ],
      "max": [
        797
      ],
      "type": "SCALAR",
      "bufferView": 3,
      "byteOffset": 0
    }
  ],
  "asset": {
    "generator": "obj2gltf",
    "version": "2.0"
  },
  "buffers": [
    {
      "name": "WeiHai_Government_High",
      "byteLength": 68032,
      "uri": "data:application/octet-stream;base64,"
    }
  ],
  "bufferViews": [
    {
      "name": "bufferView_0",
      "buffer": 0,
      "byteLength": 9576,
      "byteOffset": 0,
      "byteStride": 12,
      "target": 34962
    },
    {
      "name": "bufferView_1",
      "buffer": 0,
      "byteLength": 9576,
      "byteOffset": 9576,
      "byteStride": 12,
      "target": 34962
    },
    {
      "name": "bufferView_2",
      "buffer": 0,
      "byteLength": 6384,
      "byteOffset": 19152,
      "byteStride": 8,
      "target": 34962
    },
    {
      "name": "bufferView_3",
      "buffer": 0,
      "byteLength": 3180,
      "byteOffset": 25536,
      "target": 34963
    },
    {
      "buffer": 0,
      "byteOffset": 28716,
      "byteLength": 39314
    }
  ],
  "images": [
    {
      "name": "DefaultMaterial_Base_Color",
      "mimeType": "image/png",
      "bufferView": 4
    }
  ],
  "materials": [
    {
      "name": "07___Default",
      "pbrMetallicRoughness": {
        "baseColorTexture": {
          "index": 0
        },
        "baseColorFactor": [
          1,
          1,
          1,
          1
        ],
        "metallicFactor": 0,
        "roughnessFactor": 0.99
      },
      "emissiveFactor": [
        0,
        0,
        0
      ],
      "alphaMode": "OPAQUE",
      "doubleSided": false
    }
  ],
  "meshes": [
    {
      "name": "WeiHai_Government_High_1",
      "primitives": [
        {
          "attributes": {
            "POSITION": 0,
            "NORMAL": 1,
            "TEXCOORD_0": 2
          },
          "indices": 3,
          "material": 0,
          "mode": 4
        }
      ]
    }
  ],
  "nodes": [
    {
      "name": "WeiHai_Government_High",
      "mesh": 0
    }
  ],
  "samplers": [
    {
      "magFilter": 9729,
      "minFilter": 9986,
      "wrapS": 10497,
      "wrapT": 10497
    }
  ],
  "scene": 0,
  "scenes": [
    {
      "nodes": [
        0
      ]
    }
  ],
  "textures": [
    {
      "name": "DefaultMaterial_Base_Color",
      "sampler": 0,
      "source": 0
    }
  ]
}
